<?xml version="1.0" standalone="no"?>
<!DOCTYPE svg PUBLIC "-//W3C//DTD SVG 20010904//EN"
 "http://www.w3.org/TR/2001/REC-SVG-20010904/DTD/svg10.dtd">
<svg version="1.0" xmlns="http://www.w3.org/2000/svg"
 width="1024.000000pt" height="1024.000000pt" viewBox="0 0 1024.000000 1024.000000"
 preserveAspectRatio="xMidYMid meet">

<g transform="translate(0.000000,1024.000000) scale(0.100000,-0.100000)"
fill="#000000" stroke="none">
<path d="M4220 7713 c-85 -14 -140 -60 -160 -132 -7 -27 -10 -353 -8 -1023 3
-1106 -3 -1021 80 -1076 41 -26 45 -27 192 -27 l151 0 3 463 2 462 628 -2 627
-3 5 -460 5 -460 140 -2 c129 -3 144 -1 185 20 33 17 51 35 68 67 l22 44 0
982 c0 714 -3 990 -12 1015 -33 98 -89 130 -232 134 -56 1 -118 0 -138 -2
l-38 -5 0 -484 0 -484 -630 0 -630 0 -2 353 c-1 193 -1 407 1 474 3 88 0 127
-9 138 -10 12 -35 15 -119 14 -58 -1 -117 -4 -131 -6z"/>
<path d="M3619 7387 c-29 -16 -54 -40 -74 -72 l-30 -48 -3 -661 c-2 -454 0
-673 8 -698 24 -82 103 -137 197 -138 90 0 83 -73 83 820 0 434 -3 795 -6 804
-10 26 -120 22 -175 -7z"/>
<path d="M6427 7403 c-4 -3 -7 -368 -7 -809 0 -784 0 -804 19 -814 11 -5 43
-10 71 -10 87 0 167 57 190 135 8 29 10 224 8 700 -3 654 -3 660 -25 700 -25
48 -58 80 -96 94 -31 12 -150 15 -160 4z"/>
<path d="M5327 7023 c-9 -8 -9 -186 -1 -207 5 -13 25 -16 115 -16 119 0 128 4
110 53 -17 43 -80 106 -146 142 -67 38 -68 38 -78 28z"/>
<path d="M4800 6984 c-99 -64 -151 -130 -136 -169 5 -13 23 -15 113 -13 l108
3 3 108 c3 126 0 129 -88 71z"/>
<path d="M1990 6893 c-45 -16 -52 -72 -13 -103 26 -20 34 -21 349 -18 300 3
323 4 343 22 28 25 27 70 -1 90 -19 14 -68 16 -343 15 -176 0 -327 -3 -335 -6z"/>
<path d="M7563 6890 c-25 -10 -37 -41 -28 -71 14 -44 54 -49 380 -49 l306 0
24 25 c37 36 32 70 -12 94 -26 13 -636 15 -670 1z"/>
<path d="M3015 6738 c-33 -19 -35 -27 -35 -161 l0 -129 29 -29 c29 -28 32 -29
129 -29 71 0 101 4 104 13 7 22 2 323 -6 335 -9 16 -193 16 -221 0z"/>
<path d="M7033 6743 l-53 -4 0 -169 c0 -100 4 -171 10 -175 5 -3 50 -7 100 -7
86 -2 92 0 118 25 26 27 27 31 30 160 4 165 1 170 -89 173 -35 1 -88 -1 -116
-3z"/>
<path d="M2382 6661 c-8 -5 -12 -22 -10 -42 l3 -34 135 0 c131 0 135 1 138 22
2 12 -6 31 -17 42 -19 19 -33 21 -128 21 -60 0 -114 -4 -121 -9z"/>
<path d="M7600 6661 c-32 -5 -35 -9 -35 -41 l0 -35 140 0 140 0 3 36 c3 31 -1
37 -20 43 -28 7 -180 6 -228 -3z"/>
<path d="M1982 6390 c-12 -5 -27 -21 -32 -36 -13 -34 8 -71 46 -80 15 -4 124
-4 243 -1 119 4 262 7 318 7 79 0 105 4 117 16 22 21 20 60 -4 84 -19 19 -33
20 -342 19 -178 0 -333 -4 -346 -9z"/>
<path d="M7570 6393 c-42 -15 -52 -69 -19 -99 20 -18 38 -19 357 -16 218 2
341 7 349 14 14 11 17 56 5 74 -20 31 -54 34 -364 33 -172 0 -320 -3 -328 -6z"/>
<path d="M4676 6303 c-17 -4 -18 -14 -14 -106 3 -93 7 -108 38 -165 73 -138
231 -222 415 -222 182 0 330 82 402 224 33 63 37 81 41 165 3 72 1 95 -9 102
-16 10 -127 12 -181 3 -37 -6 -38 -8 -38 -51 0 -80 -41 -147 -112 -184 -71
-37 -215 -21 -272 29 -31 28 -56 93 -56 148 0 38 -4 54 -16 58 -18 7 -170 6
-198 -1z"/>
<path d="M1937 5823 c-11 -10 -8 -159 3 -187 l10 -26 730 0 c401 0 730 3 730
8 0 4 -20 26 -43 48 -39 38 -77 99 -91 147 -5 16 -46 17 -669 17 -365 0 -667
-3 -670 -7z"/>
<path d="M6953 5818 c-4 -7 -18 -34 -30 -60 -12 -26 -40 -67 -62 -91 -23 -24
-41 -47 -41 -51 0 -3 330 -5 733 -4 l732 3 3 108 3 107 -665 0 c-521 0 -667
-3 -673 -12z"/>
<path d="M4685 5698 c-3 -8 -4 -63 -3 -123 l3 -110 40 -7 c49 -8 757 -10 779
-2 13 5 16 26 16 125 0 65 -2 119 -4 119 -3 0 -38 -18 -79 -40 -218 -118 -487
-107 -709 29 -31 18 -39 20 -43 9z"/>
<path d="M1985 5190 c-4 -6 -4 -412 -1 -902 5 -675 9 -897 19 -916 6 -14 25
-35 40 -46 26 -19 44 -21 195 -24 92 -2 482 7 867 19 1218 37 2809 37 3865 -1
140 -5 437 -12 660 -16 444 -7 465 -5 526 48 69 61 68 57 72 516 4 488 10 456
-120 576 l-81 74 23 34 c13 18 42 52 66 75 53 52 59 86 51 260 -6 137 -19 174
-75 229 -19 18 -60 44 -91 56 -55 22 -65 23 -441 23 l-385 0 -1 -685 c-1 -377
2 -694 7 -706 10 -27 20 -28 349 -54 396 -30 380 -27 380 -84 0 -24 -3 -58 -6
-75 l-6 -31 -2793 0 c-2753 0 -2793 0 -2798 19 -6 23 -2 139 4 145 3 3 133 14
289 26 156 12 288 24 292 26 4 3 8 69 8 146 l0 141 -82 -7 c-46 -3 -156 -13
-246 -21 -152 -13 -240 -10 -260 10 -4 4 -7 264 -7 578 l0 572 -157 3 c-105 2
-159 -1 -163 -8z m5786 -284 c69 -33 79 -49 79 -130 0 -66 -2 -75 -27 -98 -43
-41 -74 -48 -209 -48 l-124 0 0 143 c0 79 3 147 8 151 14 15 235 1 273 -18z
m12 -552 c18 -9 56 -34 85 -56 l52 -40 0 -100 0 -99 -37 -15 c-40 -17 -87 -20
-270 -16 l-123 2 0 170 0 170 130 0 c101 0 138 -4 163 -16z"/>
<path d="M3065 5188 c-3 -7 -4 -323 -3 -703 l3 -690 103 3 c57 2 124 7 150 11
l47 6 3 693 2 692 -150 0 c-111 0 -152 -3 -155 -12z"/>
<path d="M3560 4515 l0 -685 33 0 c87 0 262 22 269 33 4 6 8 135 8 285 l0 272
28 1 c15 1 84 1 154 -1 118 -2 127 -1 137 18 15 29 14 215 -1 230 -8 8 -59 12
-165 12 l-153 0 0 125 c0 112 2 125 18 125 9 1 96 2 192 3 l175 2 0 130 0 130
-347 3 -348 2 0 -685z"/>
<path d="M4345 5190 c-7 -11 4 -242 12 -250 2 -3 54 -7 114 -8 l109 -4 2 -516
3 -517 146 -3 146 -3 6 45 c4 24 7 257 7 517 0 364 3 475 13 482 6 4 52 5 100
2 61 -4 93 -2 103 6 15 12 20 166 8 228 l-6 31 -379 0 c-246 0 -380 -4 -384
-10z"/>
<path d="M5338 4628 c-2 -315 -3 -605 -3 -645 0 -40 5 -76 10 -81 6 -6 150
-11 325 -13 l315 -4 3 129 c2 81 -1 133 -8 140 -6 6 -73 11 -166 12 -86 1
-160 6 -165 11 -5 5 -10 227 -11 513 l-3 505 -147 3 -148 3 -2 -573z"/>
<path d="M6355 5178 c-3 -13 -16 -79 -30 -148 -14 -69 -64 -312 -110 -540
-107 -530 -119 -600 -108 -611 5 -5 56 -13 113 -19 58 -6 119 -12 136 -14 17
-2 36 -1 42 3 7 4 19 63 27 131 9 68 21 130 27 137 8 10 34 11 112 7 55 -4
104 -9 108 -13 3 -3 15 -66 26 -140 11 -74 25 -137 31 -141 19 -11 283 -32
291 -23 9 9 1 58 -95 573 -85 456 -153 799 -160 810 -4 6 -90 10 -205 10 -199
0 -200 0 -205 -22z m224 -459 c29 -157 51 -297 51 -327 l0 -27 -75 3 c-60 3
-75 7 -75 19 0 36 71 445 77 440 1 -2 11 -50 22 -108z"/>
<path d="M4410 3101 c-45 -10 -76 -29 -88 -57 -6 -12 -13 -109 -17 -215 -6
-176 -5 -197 12 -229 24 -47 74 -64 171 -57 77 6 113 22 134 59 6 13 14 75 16
140 l4 117 -24 6 c-13 3 -49 5 -79 3 l-54 -3 -3 -38 c-3 -34 0 -39 27 -48 30
-11 31 -13 31 -70 0 -66 -12 -79 -74 -79 -68 0 -66 -5 -66 177 0 90 4 173 10
183 25 47 114 32 128 -22 7 -30 12 -33 50 -36 l42 -3 0 39 c0 58 -18 101 -50
117 -35 18 -123 26 -170 16z"/>
<path d="M4770 3083 c0 -10 30 -85 66 -168 66 -148 67 -152 73 -260 l6 -110
45 0 45 0 6 125 c6 134 10 151 78 288 23 45 44 96 48 113 l6 30 -49 -3 c-55
-3 -49 5 -105 -140 -18 -48 -36 -84 -40 -80 -4 4 -24 50 -45 102 -20 52 -41
101 -47 108 -5 6 -27 12 -48 12 -31 0 -39 -4 -39 -17z"/>
<path d="M5327 3093 c-4 -3 -7 -124 -7 -268 0 -279 1 -285 50 -285 52 0 53 5
48 179 -2 88 -1 155 3 148 4 -6 17 -48 29 -92 12 -44 29 -93 37 -108 13 -26
18 -28 66 -25 l52 3 42 120 42 120 -6 -160 c-7 -179 -3 -189 59 -183 l33 3 0
275 0 275 -54 0 -54 0 -14 -40 c-7 -22 -31 -94 -53 -159 -40 -119 -46 -133
-55 -125 -2 3 -25 72 -51 154 -26 83 -51 156 -57 163 -10 12 -99 17 -110 5z"/>
<path d="M3239 2851 c-21 -22 -29 -39 -29 -66 0 -52 44 -95 97 -95 46 0 76 19
93 59 40 98 -85 177 -161 102z"/>
<path d="M6776 2855 c-30 -33 -38 -72 -21 -112 25 -59 100 -72 154 -27 26 22
31 33 31 70 0 63 -32 94 -95 94 -36 0 -51 -5 -69 -25z"/>
<path d="M3747 2806 c-7 -18 3 -59 17 -68 6 -4 86 -8 177 -8 182 0 193 3 187
57 l-3 28 -186 3 c-154 2 -188 0 -192 -12z"/>
<path d="M6030 2781 c0 -32 4 -40 23 -45 29 -8 311 -8 331 0 11 4 16 19 16 45
l0 39 -185 0 -185 0 0 -39z"/>
</g>
</svg>
